<?xml version="1.0" encoding="UTF-8"?>
<svg xmlns="http://www.w3.org/2000/svg" version="1.1" viewBox="0 0 34 34">
  <defs>
    <style>
      .cls-1 {
        fill: #bebebe;
        fill-rule: evenodd;
      }
    </style>
  </defs>
  <!-- Generator: Adobe Illustrator 28.6.0, SVG Export Plug-In . SVG Version: 1.2.0 Build 709)  -->
  <g>
    <g id="_Слой_1" data-name="Слой_1">
      <g id="Shuffle">
        <path class="cls-1" d="M32.5,25.2l-4.8-4.9c-.4-.4-1-.4-1.4,0-.4.4-.4,1,0,1.4l3.2,3.3h-6l-3.8-4.7c-.4-.4-1-.4-1.4,0s-.4,1,0,1.4l4,5c.2.2.5.3.7.3h6.6l-3.3,3.3c-.4.4-.4,1,0,1.4.4.4,1,.4,1.4,0l4.9-5c.2-.2.4-.4.4-.8s-.2-.6-.5-.8Z"/>
        <path class="cls-1" d="M2,9h7.5l3.8,4.7c.4.4,1,.4,1.4,0s.4-1,0-1.4l-4-5c-.2-.2-.5-.3-.8-.3H2c-.6,0-1,.4-1,1s.4,1,1,1Z"/>
        <path class="cls-1" d="M23.5,9h6.1l-3.3,3.3c-.4.4-.4,1,0,1.4.4.4,1,.4,1.4,0l4.9-5c.4-.4.4-1.1,0-1.5l-4.9-5c-.4-.4-1-.4-1.4,0-.4.4-.4,1,0,1.4l3.2,3.3h-6.6s0,0,0,0c-.3,0-.6,0-.8.3l-12.8,17.7H2c-.6,0-1,.4-1,1s.4,1,1,1h8c.3,0,.6-.1.8-.3l12.7-17.7Z"/>
      </g>
    </g>
  </g>
</svg>